# xmcd
#
# Track frame offsets:
#	150
#	21005
#	29533
#	48742
#	63471
#
# Disc length: 1020 seconds
# Revision: 0
# Processed by: cddbd v1.5.2PL0 Copyright (c) Steve Scherf et al.
# Submitted via: dBpowerAMP V12.0
#
DISCID=4003fa05
DTITLE=Êtchê - Êtchê
DYEAR=2000
DGENRE=Brazil
TTITLE0=Êtchê
TTITLE1=Lamentos de Um Marginal
TTITLE2=Sobrenatural
TTITLE3=Barraco da Vila Junção
TTITLE4=Emoção
EXTD=
EXTT0=
EXTT1=
EXTT2=
EXTT3=
EXTT4=
PLAYORDER=
